# xmcd
#
# Track frame offsets: 
#        150
#        14670
#        24715
#        55090
#        82892
#        103080
#        168105
#        178277
#        193267
#        210747
#        226582
#
# Disc length: 3243 seconds
#
# Revision: 3
# Processed by: cddbd v1.5.2PL0 Copyright (c) Steve Scherf et al.
# Submitted via: ExactAudioCopy v1.1
#
DISCID=8c0ca90b
DTITLE=西園悟 - ドラマCD ガンパレード・マーチ 〜新たなる行軍歌〜 ③
DYEAR=2003
DGENRE=Drama
TTITLE0=石田彰・岡村明美・陶山章央・梅津秀行・樫井笙人・篠原恵美・吉田真弓・半場友恵・前田千亜紀・野田順子・他 - 豪雨の偵察
TTITLE1=石田彰・岡村明美・陶山章央・梅津秀行・樫井笙人・篠原恵美・吉田真弓・半場友恵・前田千亜紀・野田順子・他 - 善行の憂鬱
TTITLE2=石田彰・岡村明美・陶山章央・梅津秀行・樫井笙人・篠原恵美・吉田真弓・半場友恵・前田千亜紀・野田順子・他 - 太陽の子
TTITLE3=石田彰・岡村明美・陶山章央・梅津秀行・樫井笙人・篠原恵美・吉田真弓・半場友恵・前田千亜紀・野田順子・他 - 井戸端の喧騒
TTITLE4=石田彰・岡村明美・陶山章央・梅津秀行・樫井笙人・篠原恵美・吉田真弓・半場友恵・前田千亜紀・野田順子・他 - 冷徹の総司令
TTITLE5=石田彰・岡村明美・陶山章央・梅津秀行・樫井笙人・篠原恵美・吉田真弓・半場友恵・前田千亜紀・野田順子・他 - 絶望のブリーフィ
TTITLE5=ング
TTITLE6=石田彰・岡村明美・陶山章央・梅津秀行・樫井笙人・篠原恵美・吉田真弓・半場友恵・前田千亜紀・野田順子・他 - 出撃前のハンガー
TTITLE7=石田彰・岡村明美・陶山章央・梅津秀行・樫井笙人・篠原恵美・吉田真弓・半場友恵・前田千亜紀・野田順子・他 - 雷鳴と咆哮
TTITLE8=石田彰・岡村明美・陶山章央・梅津秀行・樫井笙人・篠原恵美・吉田真弓・半場友恵・前田千亜紀・野田順子・他 - 混沌の田原坂
TTITLE9=石田彰・岡村明美・陶山章央・梅津秀行・樫井笙人・篠原恵美・吉田真弓・半場友恵・前田千亜紀・野田順子・他 - 幸運の印
TTITLE10=石田彰・岡村明美・陶山章央・梅津秀行・樫井笙人・篠原恵美・吉田真弓・半場友恵・前田千亜紀・野田順子・他 - ボーナストラッ
TTITLE10=ク
EXTD=
EXTT0=
EXTT1=
EXTT2=
EXTT3=
EXTT4=
EXTT5=
EXTT6=
EXTT7=
EXTT8=
EXTT9=
EXTT10=
PLAYORDER=
